<svg xmlns="http://www.w3.org/2000/svg" width="20" height="20" viewBox="0 0 20 20" fill="none">
    <path d="M2.99998 16.7L6.39998 16.1L15.6 6.9C16 6.5 16.2 6 16.2 5.5C16.2 4.4 15.3 3.5 14.2 3.5C13.6 3.5 13.2 3.7 12.8 4.1L3.59998 13.3L2.99998 16.7ZM13.5 4.8C13.7 4.6 13.9 4.5 14.2 4.5C14.8 4.5 15.2 4.9 15.2 5.5C15.2 5.8 15.1 6 14.9 6.2L14.2 6.9L12.8 5.5L13.5 4.8ZM12.2 6.1L13.6 7.5L7.09998 14V13.2V12.5H6.39998H5.69998L12.2 6.1ZM4.6216 13.5015H6.09608V15.0509L4.29671 15.4008L4.6216 13.5015Z"
          fill="#90A4AE"/>
</svg>
