<svg xmlns="http://www.w3.org/2000/svg" width="14" height="16" viewBox="0 0 14 16" fill="none">
    <path d="M12.9199 1.78398e-06L1.07997 2.81906e-06C0.839974 2.84004e-06 0.599974 0.240007 0.599974 0.480008L0.599976 15.52C0.599976 15.76 0.839976 16 1.07998 16L10.1199 16C10.3599 16 10.4192 15.9646 10.5177 15.851C10.571 15.7894 10.6202 15.7525 10.6799 15.68L13.0799 13.44C13.1599 13.36 13.1599 13.36 13.2399 13.28C13.3199 13.2 13.3999 13.04 13.3999 12.88L13.3999 0.480007C13.3999 0.240006 13.1599 1.763e-06 12.9199 1.78398e-06ZM10.1999 15.28L10.1999 12.8L12.5199 12.8L10.1999 15.28ZM12.5999 12.08L10.1199 12.08C9.63993 12.08 9.39993 12.4 9.39993 12.88L9.39993 15.28L1.39998 15.28L1.39997 0.800003L12.5999 0.800002L12.5999 12.08ZM3.42439 12.8L7.39993 12.8C7.63993 12.8 7.79993 12.64 7.79993 12.4C7.79993 12.16 7.63993 12 7.39993 12L3.42439 12C3.18439 12 3.02439 12.16 3.02439 12.4C3.02439 12.64 3.18439 12.8 3.42439 12.8ZM3.42439 10.4L10.5999 10.4C10.8399 10.4 10.9999 10.24 10.9999 10C10.9999 9.76 10.8399 9.6 10.5999 9.6L3.42439 9.6C3.18439 9.6 3.02439 9.76 3.02439 10C3.02439 10.24 3.18439 10.4 3.42439 10.4ZM3.42439 8L10.5999 8C10.8399 8 10.9999 7.84 10.9999 7.6C10.9999 7.36 10.8399 7.2 10.5999 7.2L3.42439 7.2C3.18439 7.2 3.02439 7.36 3.02439 7.6C3.02439 7.84 3.18439 8 3.42439 8ZM3.42439 5.6L10.5999 5.6C10.8399 5.6 10.9999 5.44 10.9999 5.2C10.9999 4.96 10.8399 4.8 10.5999 4.8L3.42439 4.8C3.18439 4.8 3.02439 4.96 3.02439 5.2C3.02439 5.44 3.18439 5.6 3.42439 5.6ZM3.42439 3.2L10.5999 3.2C10.8399 3.2 10.9999 3.04 10.9999 2.8C10.9999 2.56 10.8399 2.4 10.5999 2.4L3.42439 2.4C3.18439 2.4 3.02439 2.56 3.02439 2.8C3.02439 3.04 3.18439 3.2 3.42439 3.2Z"
          fill="#78909C"/>
</svg>
